<svg width="92" height="22" viewBox="0 0 92 22" fill="none" xmlns="http://www.w3.org/2000/svg" class="MuiBox-root-8860 jss8901"><path d="M14.3467 11.497H12.5135L14.0147 7.20935L14.3467 11.497Z" fill="#5661FF"></path><path fill-rule="evenodd" clip-rule="evenodd" d="M10.8792 22C16.8876 22 21.7584 17.0751 21.7584 11C21.7584 4.92487 16.8876 0 10.8792 0C4.87078 0 0 4.92487 0 11C0 17.0751 4.87078 22 10.8792 22ZM6.78619 13.3488L10.1784 5.5H7.55119L3.26399 15.4H11.1566L11.8639 13.3773H14.4766L14.6354 15.4H17.4069L15.9057 5.5H12.73L9.30818 13.3488H6.78619Z" fill="#5661FF"></path><path d="M32.2058 14.11H35.9858V16H29.8398V5.80097H32.2058V14.11Z" fill="#393A40"></path><path d="M47 16H45.166C44.9607 16 44.7903 15.9533 44.655 15.86C44.5243 15.762 44.4333 15.6383 44.382 15.489L43.78 13.711H39.902L39.3 15.489C39.2533 15.6196 39.1623 15.7386 39.027 15.846C38.8917 15.9486 38.726 16 38.53 16H36.682L40.63 5.80097H43.052L47 16ZM40.448 12.101H43.234L42.296 9.30797C42.2353 9.13063 42.163 8.92297 42.079 8.68496C41.9997 8.4423 41.9203 8.18096 41.841 7.90096C41.7663 8.18563 41.6893 8.4493 41.61 8.69197C41.5307 8.93463 41.456 9.14463 41.386 9.32196L40.448 12.101Z" fill="#393A40"></path><path d="M53.7068 5.80097V7.67697H50.8368V16H48.4708V7.67697H45.6008V5.80097H53.7068Z" fill="#393A40"></path><path d="M64.3238 10.897C64.3238 11.6343 64.1955 12.3203 63.9388 12.955C63.6868 13.5896 63.3298 14.1426 62.8678 14.614C62.4058 15.0806 61.8481 15.447 61.1948 15.713C60.5461 15.979 59.8251 16.112 59.0318 16.112C58.2385 16.112 57.5151 15.979 56.8618 15.713C56.2085 15.447 55.6485 15.0806 55.1818 14.614C54.7198 14.1426 54.3605 13.5896 54.1038 12.955C53.8518 12.3203 53.7258 11.6343 53.7258 10.897C53.7258 10.1596 53.8518 9.47363 54.1038 8.83897C54.3605 8.2043 54.7198 7.65363 55.1818 7.18696C55.6485 6.7203 56.2085 6.35396 56.8618 6.08797C57.5151 5.82196 58.2385 5.68896 59.0318 5.68896C59.8251 5.68896 60.5461 5.8243 61.1948 6.09496C61.8481 6.36096 62.4058 6.7273 62.8678 7.19397C63.3298 7.66063 63.6868 8.2113 63.9388 8.84596C64.1955 9.48063 64.3238 10.1643 64.3238 10.897ZM61.9018 10.897C61.9018 10.393 61.8365 9.9403 61.7058 9.53896C61.5751 9.13297 61.3861 8.78997 61.1388 8.50996C60.8961 8.22997 60.5975 8.0153 60.2428 7.86596C59.8881 7.71663 59.4845 7.64197 59.0318 7.64197C58.5745 7.64197 58.1661 7.71663 57.8068 7.86596C57.4521 8.0153 57.1511 8.22997 56.9038 8.50996C56.6611 8.78997 56.4745 9.13297 56.3438 9.53896C56.2131 9.9403 56.1478 10.393 56.1478 10.897C56.1478 11.4056 56.2131 11.863 56.3438 12.269C56.4745 12.6703 56.6611 13.011 56.9038 13.291C57.1511 13.571 57.4521 13.7856 57.8068 13.935C58.1661 14.0796 58.5745 14.152 59.0318 14.152C59.4845 14.152 59.8881 14.0796 60.2428 13.935C60.5975 13.7856 60.8961 13.571 61.1388 13.291C61.3861 13.011 61.5751 12.6703 61.7058 12.269C61.8365 11.863 61.9018 11.4056 61.9018 10.897Z" fill="#393A40"></path><path d="M67.8211 9.93096H68.1991C68.5491 9.93096 68.8011 9.8213 68.9551 9.60196L71.2511 6.26996C71.3771 6.08796 71.5194 5.9643 71.6781 5.89896C71.8414 5.83363 72.0397 5.80097 72.2731 5.80097H74.3311L71.3071 9.92396C71.1997 10.0733 71.0877 10.197 70.9711 10.295C70.8544 10.393 70.7354 10.4746 70.6141 10.54C70.7914 10.6053 70.9524 10.6963 71.0971 10.813C71.2464 10.925 71.3817 11.0766 71.5031 11.268L74.5831 16H72.4691C72.3337 16 72.2171 15.9906 72.1191 15.972C72.0257 15.9533 71.9441 15.9253 71.8741 15.888C71.8041 15.8506 71.7434 15.8063 71.6921 15.755C71.6407 15.699 71.5917 15.636 71.5451 15.566L69.2351 12.017C69.1511 11.8863 69.0437 11.7953 68.9131 11.744C68.7871 11.688 68.6144 11.66 68.3951 11.66H67.8211V16H65.4551V5.80097H67.8211V9.93096Z" fill="#393A40"></path><path d="M82.0152 5.80097V7.62097H77.8292V10.001H81.0352V11.751H77.8292V14.18H82.0152V16H75.4492V5.80097H82.0152Z" fill="#393A40"></path><path d="M84.342 5.80097C84.4447 5.80097 84.531 5.80563 84.601 5.81496C84.671 5.8243 84.734 5.84296 84.79 5.87097C84.846 5.8943 84.8997 5.9293 84.951 5.97596C85.0023 6.02263 85.0607 6.08563 85.126 6.16496L89.97 12.29C89.9513 12.094 89.9373 11.905 89.928 11.723C89.9187 11.5363 89.914 11.3613 89.914 11.198V5.80097H92V16H90.768C90.586 16 90.432 15.972 90.306 15.916C90.18 15.86 90.0587 15.7573 89.942 15.608L85.133 9.53197C85.147 9.7093 85.1587 9.8843 85.168 10.057C85.1773 10.225 85.182 10.3836 85.182 10.533V16H83.096V5.80097H84.342Z" fill="#393A40"></path></svg>